Coordinates																	
version=1																	
nRows=37																	
nColumns=18																	
inDegrees=yes																	
																	
"Units are S.I. units (second, meters, Newtons, ...)"																	
"If the header above contains a line with 'inDegrees', this indicates whether rotational values are in degrees (yes) or radians (no)."																	
																	
endheader																	
time	/jointset/hip_l/hip_flexion_l/value	/jointset/hip_l/hip_adduction_l/value	/jointset/hip_l/hip_rotation_l/value	/jointset/hip_r/hip_flexion_r/value	/jointset/hip_r/hip_adduction_r/value	/jointset/hip_r/hip_rotation_r/value	/jointset/knee_l/knee_angle_l/value	/jointset/knee_r/knee_angle_r/value	/jointset/ankle_l/ankle_angle_l/value	/jointset/ankle_r/ankle_angle_r/value	/jointset/subtalar_l/subtalar_angle_l/value	/jointset/subtalar_r/subtalar_angle_r/value	/jointset/mtp_l/mtp_angle_l/value	/jointset/mtp_r/mtp_angle_r/value	/jointset/back/lumbar_extension/value	/jointset/back/lumbar_bending/value	/jointset/back/lumbar_rotation/value
12.51	66.68026379	19.00270251	8.78666976	66.68026379	19.00270251	8.78666976	-68.16572053	-68.16572053	-48.00045406	-48.00045406	-24.13094262	-24.13094262	12.71819497	12.71819497	36.02997082	18.79841712	24.82249704
12.52	63.05162273	-14.23453521	-14.22689104	63.05162273	-14.23453521	-14.22689104	-64.57446329	-64.57446329	0.39920967	0.39920967	19.93248741	19.93248741	50.56620581	50.56620581	-36.31714834	-21.2734899	0.42355507
12.53	-23.47665708	18.96299506	1.95264893	-23.47665708	18.96299506	1.95264893	-114.2431596	-114.2431596	-8.30117687	-8.30117687	-3.84139573	-3.84139573	32.2459833	32.2459833	-20.06368679	7.41287601	-2.09294437
12.54	-1.11850445	17.15872916	-12.30443712	-1.11850445	17.15872916	-12.30443712	-56.4626532	-56.4626532	33.76358186	33.76358186	-0.66845683	-0.66845683	-2.15705889	-2.15705889	-4.36768137	-38.41052545	-27.810965
12.55	48.70808652	-11.77596468	-16.93972872	48.70808652	-11.77596468	-16.93972872	-33.45318234	-33.45318234	11.17336197	11.17336197	31.53275158	31.53275158	35.89813963	35.89813963	-22.73848125	-44.93070579	-13.46364854
12.56	2.62327566	-3.36625956	32.30083516	2.62327566	-3.36625956	32.30083516	-37.52143673	-37.52143673	48.53195743	48.53195743	-22.02987985	-22.02987985	13.51632927	13.51632927	-31.06486256	-22.01288401	35.69217314
12.57	4.9571743	-18.91897627	3.12522633	4.9571743	-18.91897627	3.12522633	-38.71413506	-38.71413506	-44.30017009	-44.30017009	-14.94359126	-14.94359126	36.92230862	36.92230862	10.33606146	-31.20449257	-5.76678217
12.58	29.56592683	10.62263018	30.24560542	29.56592683	10.62263018	30.24560542	-117.0002989	-117.0002989	-36.42344836	-36.42344836	11.73958396	11.73958396	54.29841598	54.29841598	33.00984485	-16.4068932	-37.20650815
12.59	42.36468983	14.95941278	-16.53841441	42.36468983	14.95941278	-16.53841441	-48.5925199	-48.5925199	38.77281307	38.77281307	3.55996447	3.55996447	48.36209743	48.36209743	-20.17680064	6.23117983	-10.81752943
12.6	-1.35886138	10.26944257	3.82277242	-1.35886138	10.26944257	3.82277242	-98.82928915	-98.82928915	-22.30967803	-22.30967803	18.08371316	18.08371316	45.35642758	45.35642758	-17.91994319	-30.50405246	2.50375135
12.61	49.00326647	-12.6512497	17.36899821	49.00326647	-12.6512497	17.36899821	-119.1681615	-119.1681615	7.20839688	7.20839688	-5.62988722	-5.62988722	31.39125497	31.39125497	-42.16481602	-2.79373792	-31.87750485
12.62	48.55225381	13.09153798	26.18958625	48.55225381	13.09153798	26.18958625	-5.81691258	-5.81691258	-16.73082863	-16.73082863	13.88798722	13.88798722	56.15231976	56.15231976	-12.39912576	42.47239515	7.68732846
12.63	-1.82549783	12.39357937	33.32498606	-1.82549783	12.39357937	33.32498606	-26.43062238	-26.43062238	-8.17435148	-8.17435148	-8.84913577	-8.84913577	13.94081032	13.94081032	29.24906026	-1.76922236	-7.75246359
12.64	-6.75811093	0.93503908	21.91069458	-6.75811093	0.93503908	21.91069458	-89.25805288	-89.25805288	43.25385539	43.25385539	-6.13537109	-6.13537109	58.52863588	58.52863588	-0.34598298	11.27350313	-10.9028018
12.65	-2.83494837	-4.10603953	20.11994159	-2.83494837	-4.10603953	20.11994159	-98.51756387	-98.51756387	40.15753768	40.15753768	-18.68404328	-18.68404328	6.07422453	6.07422453	41.07477632	-26.22750118	14.90390067
12.66	32.87230274	-17.22003188	11.11693293	32.87230274	-17.22003188	11.11693293	-50.70730592	-50.70730592	-38.10808599	-38.10808599	16.57637327	16.57637327	41.72619386	41.72619386	-3.78420964	-27.2484531	-40.52797775
12.67	-1.95841296	12.89297327	-5.93205357	-1.95841296	12.89297327	-5.93205357	-34.28610764	-34.28610764	23.58782872	23.58782872	14.69384343	14.69384343	50.97568465	50.97568465	44.66330698	1.22375965	-21.03956423
12.68	12.02745915	13.94606835	12.9149766	12.02745915	13.94606835	12.9149766	-101.4693144	-101.4693144	17.15666456	17.15666456	8.95421307	8.95421307	27.6439986	27.6439986	43.74845624	32.42032754	33.77130772
12.69	30.56434241	-18.26440902	-1.18590016	30.56434241	-18.26440902	-1.18590016	3.27229023	3.27229023	-19.21889659	-19.21889659	-12.42006508	-12.42006508	52.32313544	52.32313544	-10.90512928	26.89722312	-43.10665928
12.7	9.91662486	-5.82361244	3.04848205	9.91662486	-5.82361244	3.04848205	-83.97259898	-83.97259898	-2.50903933	-2.50903933	-27.14886557	-27.14886557	1.37950488	1.37950488	-22.91670493	-3.38016755	-4.70046184
12.71	10.05542947	-14.7377151	22.67004658	10.05542947	-14.7377151	22.67004658	-112.8539106	-112.8539106	15.20438599	15.20438599	9.27389326	9.27389326	-7.56687837	-7.56687837	1.3738151	-23.02081926	6.10428543
12.72	47.16054373	15.5261897	16.85282084	47.16054373	15.5261897	16.85282084	-97.16135763	-97.16135763	38.044259	38.044259	28.57902275	28.57902275	19.13995389	19.13995389	43.88707221	-8.24401414	-24.33869347
12.73	41.52167274	-4.24239028	8.24341727	41.52167274	-4.24239028	8.24341727	-18.52425888	-18.52425888	-23.5549308	-23.5549308	20.30213911	20.30213911	-4.75193654	-4.75193654	15.82885827	-18.95314961	37.21802598
12.74	44.77054466	-1.06192509	1.03486053	44.77054466	-1.06192509	1.03486053	-55.01917051	-55.01917051	-38.47951551	-38.47951551	-20.79373218	-20.79373218	37.43829102	37.43829102	-8.04180571	-30.44046508	-12.67332628
12.75	17.62163656	-15.09629288	-4.91907858	17.62163656	-15.09629288	-4.91907858	-32.43925268	-32.43925268	-40.87811706	-40.87811706	-16.48119561	-16.48119561	-3.23046079	-3.23046079	30.91405756	-27.24183086	-0.19308117
12.76	39.96122461	-19.79697234	15.39227283	39.96122461	-19.79697234	15.39227283	-41.2414523	-41.2414523	41.29254674	41.29254674	29.76092629	29.76092629	-1.2602808	-1.2602808	42.18559163	-12.93753265	-21.7548606
12.77	11.67470569	12.57617106	-3.58379237	11.67470569	12.57617106	-3.58379237	-57.87970805	-57.87970805	-29.95154595	-29.95154595	-31.44046036	-31.44046036	-6.20261796	-6.20261796	6.75534529	38.25061906	0.97511735
12.78	55.73561724	-12.82674994	-15.79580943	55.73561724	-12.82674994	-15.79580943	-11.79960623	-11.79960623	-47.73310657	-47.73310657	-12.80664086	-12.80664086	32.18553586	32.18553586	-3.74183264	-18.09587853	-44.90999091
12.79	14.6090952	18.32835725	26.63763351	14.6090952	18.32835725	26.63763351	-16.57526651	-16.57526651	42.84076458	42.84076458	7.74582287	7.74582287	7.49496843	7.49496843	11.53058554	17.49180159	-3.63535917
12.8	20.75190897	16.75299633	-10.83060296	20.75190897	16.75299633	-10.83060296	-110.2506565	-110.2506565	16.16936241	16.16936241	-26.0531819	-26.0531819	-6.34060555	-6.34060555	-9.53600491	24.16500175	-19.90436021
12.81	31.59771922	-3.02653025	22.61345914	31.59771922	-3.02653025	22.61345914	-106.7104555	-106.7104555	36.42996654	36.42996654	29.14380638	29.14380638	26.5352863	26.5352863	-5.97125695	14.17975877	1.83288877
12.82	8.97227735	-10.3291442	0.93248133	8.97227735	-10.3291442	0.93248133	-57.97251798	-57.97251798	-29.33881418	-29.33881418	23.12434941	23.12434941	54.77402534	54.77402534	38.20158696	44.95781724	-31.69876852
12.83	63.3002666	12.66627921	8.46333404	63.3002666	12.66627921	8.46333404	-2.68586023	-2.68586023	-0.3367988	-0.3367988	20.14400012	20.14400012	-1.06185582	-1.06185582	29.36120248	-16.51136687	-0.5939396
12.84	34.55661099	-17.74360968	21.21509655	34.55661099	-17.74360968	21.21509655	-109.7339365	-109.7339365	-17.39942458	-17.39942458	25.49890429	25.49890429	38.03056441	38.03056441	25.56540091	41.25210292	28.53182232
12.85	69.99254784	17.52343729	-3.73890426	69.99254784	17.52343729	-3.73890426	-89.83677993	-89.83677993	-38.87280535	-38.87280535	-25.18116815	-25.18116815	57.40515151	57.40515151	35.19917434	17.6149303	43.79677738
12.86	30.57503704	-0.24516054	-3.38016568	30.57503704	-0.24516054	-3.38016568	-63.09634937	-63.09634937	-49.52528152	-49.52528152	-0.26826787	-0.26826787	40.54537013	40.54537013	43.71084036	13.15564275	7.69351615
12.87	14.85703858	-5.25655174	-6.21639424	14.85703858	-5.25655174	-6.21639424	-104.2263919	-104.2263919	-12.46617401	-12.46617401	-8.76738873	-8.76738873	-0.02904583	-0.02904583	-30.78186761	16.1872074	21.92369755
